<svg width="256" height="257" viewBox="0 0 256 257" fill="none" xmlns="http://www.w3.org/2000/svg">
<path d="M189.828 236.616C189.828 237.151 189.828 237.285 189.828 237.285" stroke="black"/>
<path d="M151.728 249.316C151.724 249.093 151.719 248.87 151.713 248.648M143.724 249.316C143.72 249.549 143.715 249.772 143.708 249.984" stroke="black"/>
<path fill-rule="evenodd" clip-rule="evenodd" d="M133.964 211.217C120.947 210.771 91.3045 206.137 76.8669 191.164C65.504 181.138 58.8199 171.112 58.8199 170.444L58.1515 170.036H15.3734C34.8824 218.229 85.0764 252.949 143.724 249.316C143.946 242.855 142.371 226.857 134.35 211.885L133.964 211.217Z" fill="#CD1D5E"/>
<path d="M151.713 248.648C151.67 247.032 151.591 245.446 151.48 243.891C149.818 220.557 140.911 204.109 136.355 198.517C110.59 166.311 80.2085 162.832 73.0732 162.015C72.0638 161.9 71.5196 161.837 71.5196 161.755C71.5196 161.22 31.9747 161.532 12.3681 161.755C7.47981 148.711 6.68407 140.086 6.68407 125.661L6.69097 124.324L104.272 124.324C109.084 124.324 116.971 120.313 116.971 120.313L126.329 114.298C146.381 98.2558 133.681 88.8981 126.329 87.5614C118.977 86.2246 22.7258 87.5614 22.7258 87.5614L7.35245 111.29L5.34723 114.298L0 114.298C0.534728 88.6309 15.819 59.7111 23.3943 48.7937C23.2839 48.6903 23.3943 48.7938 33.4204 48.7938H126.997L138.36 50.799C147.05 52.3586 166.433 62.1619 174.454 88.8982C182.475 115.634 156.853 140.588 143.039 149.723C162.289 166.3 175.123 188.268 179.133 197.18C206.939 177.93 214.97 151.06 218.569 132.345C218.886 130.695 219.108 128.67 219.174 126.329C219.574 112.228 215.011 86.6772 191.164 62.8303C163.359 35.0245 127.666 36.7624 113.629 40.1044H41.4413C64.3855 15.4332 93.9906 0 130.339 0C199.74 0 256 54.1073 256 123.508C256 172.194 230.317 214.414 189.828 235.279V236.616V237.285V243.969C179.668 249.316 160.195 254.663 151.728 256.668L151.713 248.648Z" fill="url(#paint0_linear_1019_528)"/>
<defs>
<linearGradient id="paint0_linear_1019_528" x1="31.4151" y1="58.8198" x2="255.332" y2="140.366" gradientUnits="userSpaceOnUse">
<stop offset="0.233205" stop-color="#092B47"/>
<stop offset="1" stop-color="#5F8EA1"/>
</linearGradient>
</defs>
</svg>
